<?xml version="1.0" standalone="no"?>
<!DOCTYPE svg PUBLIC "-//W3C//DTD SVG 20010904//EN"
 "http://www.w3.org/TR/2001/REC-SVG-20010904/DTD/svg10.dtd">
<svg version="1.0" xmlns="http://www.w3.org/2000/svg"
 width="520.000000pt" height="520.000000pt" viewBox="0 0 520.000000 520.000000"
 preserveAspectRatio="xMidYMid meet">
<metadata>
Created by potrace 1.11, written by Peter Selinger 2001-2013
</metadata>
<g transform="translate(0.000000,520.000000) scale(0.100000,-0.100000)"
fill="#000000" stroke="none">
<path d="M2408 5195 c-1 -2 -32 -6 -68 -9 -263 -23 -587 -113 -835 -232 -625
-300 -1099 -828 -1326 -1479 -26 -76 -65 -211 -75 -265 -3 -14 -9 -41 -14 -60
-5 -19 -11 -57 -14 -83 -3 -27 -8 -52 -10 -55 -4 -7 -11 -75 -21 -212 -6 -72
-6 -256 -1 -307 2 -20 -1 -33 -8 -33 -8 0 -8 -2 1 -8 6 -4 14 -39 17 -77 3
-39 8 -86 11 -105 4 -19 8 -54 9 -76 0 -23 4 -40 9 -37 6 4 11 -29 10 -79 0
-10 4 -18 9 -18 4 0 8 -8 8 -17 0 -10 12 -56 25 -102 14 -47 23 -86 20 -89 -2
-2 3 -11 11 -19 8 -8 12 -18 9 -23 -3 -5 -1 -11 5 -15 5 -3 10 -13 10 -20 0
-8 18 -56 41 -107 22 -51 41 -98 43 -104 1 -7 8 -19 15 -28 7 -9 11 -23 7 -31
-3 -9 -2 -14 3 -11 11 7 23 -22 15 -35 -3 -5 0 -8 7 -7 7 2 13 -1 14 -7 0 -5
7 -21 16 -35 49 -80 79 -132 79 -140 0 -5 6 -11 12 -13 10 -4 9 -8 -2 -17 -13
-10 -13 -11 2 -7 17 6 33 -18 23 -34 -4 -5 1 -6 9 -3 11 4 16 0 16 -10 0 -9 5
-16 11 -16 5 0 8 -4 5 -9 -3 -5 1 -11 9 -15 8 -3 15 -11 15 -18 0 -7 9 -19 21
-26 12 -7 18 -16 15 -19 -3 -3 6 -14 19 -25 14 -11 25 -24 25 -29 0 -5 14 -23
30 -41 17 -17 28 -38 25 -45 -3 -8 0 -11 6 -8 5 4 33 -16 60 -45 43 -45 48
-54 37 -68 -11 -15 -11 -15 3 -4 13 10 18 10 28 -1 6 -8 7 -17 3 -21 -4 -4 0
-6 8 -4 8 2 14 -2 13 -9 -2 -8 4 -10 14 -6 13 5 15 2 10 -11 -4 -10 -3 -15 3
-11 10 6 75 -51 75 -66 0 -4 4 -11 9 -16 5 -5 6 -3 2 5 -4 6 -2 12 3 12 6 0
11 -4 11 -8 0 -5 11 -15 25 -22 13 -7 22 -17 19 -22 -3 -4 2 -8 11 -8 8 0 18
-7 21 -15 4 -8 10 -13 14 -10 4 3 14 -3 21 -12 12 -14 12 -16 0 -8 -10 6 -12
4 -7 -4 5 -7 10 -10 13 -7 7 7 63 -25 63 -36 0 -4 7 -8 16 -8 10 0 14 -6 11
-14 -4 -10 -1 -13 9 -9 7 3 14 0 14 -6 0 -6 3 -10 8 -10 22 4 34 -3 29 -15 -4
-10 -1 -13 8 -10 14 6 72 -28 87 -51 4 -5 8 -6 8 -2 0 4 9 3 20 -3 11 -6 18
-15 15 -20 -4 -6 1 -7 11 -3 13 5 15 3 9 -7 -5 -8 -4 -11 3 -7 14 10 43 -3 36
-15 -4 -6 -1 -8 7 -6 8 3 25 0 39 -8 14 -7 40 -18 58 -26 17 -7 32 -16 32 -20
0 -5 9 -8 20 -8 11 0 20 -5 20 -11 0 -5 4 -8 8 -5 5 3 20 -1 35 -9 15 -8 27
-12 27 -9 0 3 10 -1 23 -8 12 -6 31 -13 42 -15 10 -2 22 -8 26 -14 3 -6 9 -10
13 -10 18 3 27 0 23 -6 -3 -5 9 -7 26 -7 18 1 44 -5 59 -12 15 -8 37 -14 49
-14 16 0 20 -4 14 -17 -5 -15 -4 -16 6 -6 14 14 43 18 36 6 -3 -5 5 -9 16 -10
20 -1 72 -8 122 -17 11 -2 19 -9 17 -15 -2 -8 3 -9 14 -3 19 11 64 4 64 -10 0
-6 7 -5 15 2 8 7 15 9 15 4 0 -5 25 -10 56 -11 35 0 60 -6 65 -15 6 -9 9 -9 9
-1 0 13 56 13 77 0 6 -4 14 -1 16 5 4 10 6 10 6 1 1 -9 8 -10 25 -3 13 5 26 6
29 3 7 -6 207 -10 207 -3 0 3 13 5 29 5 16 1 28 -2 26 -5 -2 -4 2 -7 10 -7 8
0 12 4 8 10 -3 5 5 7 18 6 13 -2 30 0 37 4 7 5 12 3 12 -3 0 -6 5 -8 13 -3 6
4 23 8 37 9 14 1 51 7 84 13 32 6 62 8 66 6 5 -3 11 -1 15 4 3 5 13 10 23 10
16 0 57 8 57 11 0 2 12 5 64 16 24 5 32 4 27 -4 -3 -6 -1 -14 6 -18 7 -4 10
-4 6 1 -10 11 11 47 23 40 5 -4 6 -11 3 -17 -4 -7 -2 -8 5 -4 6 4 8 12 5 18
-5 7 0 9 14 6 12 -4 20 -2 16 3 -3 5 2 9 10 9 23 0 31 -4 28 -13 -1 -5 2 -6 8
-2 6 3 8 10 5 14 -4 7 87 46 150 65 18 5 69 27 97 41 20 9 28 10 32 1 2 -6 5
-5 5 4 2 22 51 43 68 28 10 -8 12 -8 8 4 -4 9 4 19 20 26 32 15 38 15 30 2 -3
-5 -1 -10 5 -10 7 0 9 7 6 15 -6 17 38 40 56 29 6 -4 8 -2 5 3 -8 12 116 94
144 96 10 1 16 5 13 9 -3 4 8 15 23 25 15 10 31 22 35 28 4 5 8 6 8 2 0 -5 7
-2 15 5 43 39 64 50 49 26 -4 -7 -3 -8 5 -4 6 4 9 11 7 15 -3 4 6 18 19 29 14
12 25 19 25 14 0 -4 5 1 11 11 6 9 15 15 20 11 5 -3 8 -2 7 3 -2 5 15 25 37
43 22 19 48 43 57 54 11 11 24 16 34 12 15 -6 15 -4 3 11 -12 15 -12 16 3 10
10 -3 17 -3 15 1 -4 14 52 74 63 67 6 -4 9 -2 8 3 -5 15 42 73 53 67 5 -4 8
-3 7 2 -4 14 34 63 45 56 6 -3 7 -1 3 5 -3 6 2 15 11 21 10 5 16 11 13 13 -9
6 34 47 43 41 6 -3 7 -1 3 6 -8 13 28 64 38 53 4 -3 4 2 0 13 -6 14 -4 17 9
12 11 -4 14 -2 10 8 -3 8 2 18 11 21 9 3 13 10 10 15 -3 5 6 20 20 34 14 14
23 25 20 25 -2 0 0 9 6 20 6 12 17 17 28 14 13 -4 14 -3 4 4 -11 7 -8 18 13
53 14 24 30 56 36 72 6 15 15 27 20 27 5 0 9 4 9 9 0 5 18 47 40 94 22 46 40
90 40 96 0 7 4 9 10 6 6 -3 7 1 4 9 -3 9 -1 16 6 16 6 0 9 4 6 9 -8 12 4 42
14 36 5 -3 6 5 2 17 -4 16 -2 19 8 13 8 -5 11 -4 6 3 -9 15 4 63 15 56 5 -3 6
1 3 9 -3 8 2 22 11 31 9 9 12 16 7 16 -10 0 6 69 18 80 3 3 7 21 8 40 2 19 8
42 12 50 5 9 11 36 15 60 8 51 13 75 15 75 4 0 12 64 26 190 1 17 3 30 4 30 8
0 12 319 6 400 -8 102 -16 181 -20 201 -2 12 -7 45 -11 75 -22 176 -126 492
-235 710 -217 437 -542 788 -982 1061 -57 35 -269 141 -338 168 -143 57 -365
124 -485 145 -16 2 -39 7 -50 9 -11 2 -47 7 -80 11 -32 4 -68 9 -80 12 -23 5
-461 13 -467 8z"/>
<path d="M4490 900 c0 -5 5 -10 11 -10 5 0 7 5 4 10 -3 6 -8 10 -11 10 -2 0
-4 -4 -4 -10z"/>
<path d="M4067 519 c7 -7 15 -10 18 -7 3 3 -2 9 -12 12 -14 6 -15 5 -6 -5z"/>
<path d="M1835 160 c3 -5 8 -10 11 -10 2 0 4 5 4 10 0 6 -5 10 -11 10 -5 0 -7
-4 -4 -10z"/>
</g>
</svg>
